<?xml version="1.0" encoding="utf-8"?>
<!-- Generator: Adobe Illustrator 24.0.3, SVG Export Plug-In . SVG Version: 6.00 Build 0)  -->
<svg version="1.1" id="레이어_1" xmlns="http://www.w3.org/2000/svg" xmlns:xlink="http://www.w3.org/1999/xlink" x="0px"
	 y="0px" viewBox="0 0 576 82" style="enable-background:new 0 0 576 82;" xml:space="preserve">
<style type="text/css">
	.st0{fill-rule:evenodd;clip-rule:evenodd;fill:#7D4CDB;}
</style>
<path class="st0" d="M574.5,28.5c-0.5,0.8-1.1,1.3-1.8,1.8c-0.7,0.4-1.4,0.7-2.2,0.8c-0.8,0.1-1.5,0.2-2.2,0.2
	c-1.1,0-2.3-0.1-3.4-0.5c-1.1-0.3-2.3-0.4-3.5-0.4c-1,0-1.9,0.2-2.7,0.5c-0.8,0.4-1.2,1.1-1.2,2.2c0,0.4,0.2,0.9,0.5,1.4
	c0.4,0.5,1,1,2,1.5c1.9,1,3.8,2.2,5.8,3.5s3.8,2.7,5.4,4.4c1.6,1.6,2.7,3.5,3.5,5.5c0.8,2.1,0.9,4.4,0.4,7c-0.5,2.2-1.4,4-2.9,5.4
	c-1.4,1.5-3.2,2.7-5.3,3.6s-4.4,1.5-6.9,1.9s-5.1,0.6-7.7,0.6c-1.4,0-3.1-0.1-5-0.2c-2-0.1-3.9-0.5-5.6-1c-1.8-0.6-3.2-1.5-4.4-2.7
	c-1.2-1.2-1.6-2.9-1.3-5.1c0.2-1.6,0.8-2.8,1.6-3.6s1.8-1.3,2.7-1.6s1.9-0.4,2.9-0.3c0.9,0.1,1.6,0.2,2,0.2c0.7,0.1,1.5,0.2,2.2,0.3
	s1.5,0.1,2.2,0.1c2.9,0,4.4-0.7,4.4-2.2c0-1.1-0.5-2.1-1.6-3.2c-1.1-1-2.4-2.2-4-3.5c-3.1-2.4-5.4-4.6-7-6.6s-2.5-4.3-2.7-7
	c-0.2-2.1,0.1-4,0.8-5.8s1.8-3.3,3.3-4.6c1.5-1.3,3.4-2.3,5.8-3.1c2.3-0.8,5-1.1,8.1-1.1c1.3,0,3,0,5.2,0.1c2.1,0.1,4.2,0.4,6.3,0.9
	c2,0.5,3.8,1.4,5.2,2.6s2.1,2.8,1.9,5C575.2,26.8,575,27.7,574.5,28.5z M529.6,54.4c-0.1,2.2-0.2,3.8-0.3,5c-0.2,2.8-1.1,4.8-2.5,6
	s-3.7,1.8-6.7,1.8c-2.3,0-4.1-0.3-5.4-0.8c-1.3-0.5-2.4-1.8-3.3-4c-1.6,1.1-3.2,1.9-4.8,2.4c-1.7,0.4-3.3,0.7-5.1,0.7
	c-2.5,0-4.7-0.3-6.8-0.8c-2-0.5-3.8-1.5-5.4-2.7c-1.5-1.3-2.8-3-3.7-5.1c-1-2.1-1.6-4.8-1.9-8c-0.2-2-0.3-4.2-0.3-6.7s0-4.9,0.2-7.4
	s0.5-4.8,0.9-7s0.9-4,1.5-5.4c0.5-1.2,1.5-2.2,3-3s3.3-1.2,5.4-1.2c2,0,3.7,0.5,5,1.6c1.3,1,1.9,2.8,1.8,5.3C501.1,28,501,31,501,34
	s0,5.8,0,8.4c0,2.9,0.4,5,1.2,6.4c0.8,1.4,2.2,2.1,4.4,2.2c0.7,0,1.4-0.1,2.1-0.2c0.7-0.1,1.5-0.4,2.2-0.9c-0.1-3-0.1-6.1,0-9.4
	c0.1-3.2,0.2-7.1,0.5-11.6c0.1-2.1,0.4-3.8,0.8-5.2s1-2.5,1.9-3.3c0.8-0.8,1.9-1.4,3.2-1.8s2.9-0.5,4.8-0.5c1.7,0,3,0.2,3.7,0.7
	c0.8,0.4,1.4,1.1,1.8,2c0.4,0.8,0.8,2.1,1,4s0.4,4.1,0.6,6.5c0.1,2.5,0.3,5.1,0.3,7.9c0.1,2.8,0.1,5.5,0,8.1
	C529.7,49.9,529.6,52.3,529.6,54.4z M455.2,57.1c-0.4,1.8-1,3.4-1.7,4.9c-0.7,1.3-1.6,2.4-2.7,3.3c-1.2,1-2.8,1.4-5,1.4
	s-3.9-0.5-5.2-1.5c-1.3-1-1.9-2.8-1.8-5.3c0.1-2.9,0.2-5.6,0.2-8.1c0-2.5,0-5,0-7.6c0-2.4-0.4-4.5-1.2-6.3c-0.8-1.8-2.2-2.7-4.1-2.7
	c-0.5,0-1,0.1-1.5,0.2c-0.5,0.1-1.1,0.3-1.8,0.6c-0.1,3.2-0.2,6.2-0.4,9.1c-0.1,2.9-0.3,5.7-0.5,8.5c-0.1,2.1-0.4,4-0.8,5.6
	c-0.4,1.7-1.1,3.1-1.9,4.2c-0.8,1.2-1.9,2.1-3.2,2.7c-1.3,0.6-2.9,0.9-4.8,0.9c-1.7,0-3-0.2-3.7-0.7c-0.8-0.5-1.4-1.1-1.8-2
	c-0.3-0.5-0.6-1.5-0.9-3c-0.3-1.4-0.5-3.3-0.6-5.5c-0.5-7.7-0.6-15.3-0.4-22.9s0.5-15.3,1-23.1c0.1-1.6,0.2-3,0.5-4.1
	s0.8-1.9,1.4-2.6s1.5-1.1,2.5-1.4s2.4-0.4,4-0.4c0.4,0,1.2,0,2.2,0.1s2.1,0.3,3.2,0.8c1.1,0.4,2.1,1.1,2.9,1.9
	c0.8,0.9,1.3,2.1,1.3,3.7c0.1,2.2,0.1,4.5,0.1,6.9c0,2.5,0,4.9,0,7.2c1.3-0.4,2.5-0.7,3.6-0.9c1.2-0.1,2.3-0.2,3.5-0.2
	c5.3,0.1,9.5,1.5,12.7,4.5c3.2,2.9,5.1,7.6,5.8,14c0.2,1.9,0.3,3.9,0.3,5.9s-0.1,4-0.3,6C456,53.4,455.7,55.3,455.2,57.1z M402.6,58
	c-1.1,1.8-2.6,3.5-4.2,4.9c-1.7,1.4-3.6,2.6-5.7,3.4s-4.5,1.3-7.1,1.3s-4.8-0.5-6.8-1.4s-3.6-2.2-5-3.8c-1.4-1.6-2.5-3.5-3.3-5.7
	s-1.3-4.5-1.6-7.1c-0.3-2.6-0.5-5.4-0.6-8.4s-0.1-6,0-9.1c-0.8-0.1-1.6-0.2-2.2-0.3c-0.6-0.1-1.1-0.2-1.4-0.3
	c-1.2-0.4-2.2-0.9-2.9-1.4c-0.8-0.5-1.1-1.2-1.1-2c0-3.7,0.8-6.1,2.4-7.3c1.2-0.9,2.6-1.5,4.2-1.7c0.3-0.1,0.6-0.1,0.9-0.1
	s0.6,0,0.9-0.1c0.2-2.1,0.4-4.1,0.6-6.1c0.2-1.9,0.5-3.8,0.8-5.5c0.3-1.9,1.1-3.3,2.3-4.3c1.2-1,2.7-1.4,4.5-1.2
	c1.4,0,2.6,0.2,3.6,0.6s1.8,1,2.5,1.6c1.1,0.6,1.8,1.5,2.1,2.8c0.3,1.2,0.4,2.5,0.3,3.9c-0.1,1.1-0.1,2.2-0.2,3.5
	c-0.1,1.2-0.1,2.5-0.2,3.9c1.2,0.1,2.4,0.1,3.5,0.2s2.3,0.2,3.5,0.4c2.9,0.4,5.4,0.9,7.3,1.8c1.9,0.8,2.9,2,2.8,3.5
	c-0.1,1.9-0.6,3.5-1.3,4.7c-0.8,1.2-1.5,2-2.4,2.3c-1,0.7-2.7,1.1-5.3,1.4c-2.6,0.3-5.5,0.4-8.7,0.5c0,2.1,0,4.1,0,6.1
	s0.1,3.8,0.2,5.5c0.3,3.5,0.6,6,1,7.5s1,2.2,1.9,2.2c0.5,0,0.9-0.3,1.3-0.8s0.7-1.2,0.9-2c0.2-0.8,0.5-1.7,0.6-2.6
	c0.2-0.9,0.4-1.8,0.5-2.6c0.3-1.8,1.2-3.1,2.7-3.8c1.5-0.8,3.3-0.9,5.4-0.4c2.6,0.5,4.4,1.8,5.4,3.8s1.2,4.1,0.4,6.4
	C404.6,54.2,403.7,56.2,402.6,58z M352.5,13.4c-0.6,1.1-1.5,2.1-2.7,2.9c-1.1,0.8-2.6,1.2-4.3,1.2c-2,0-3.8-0.3-5.2-0.8
	c-1.4-0.5-2.6-1.2-3.5-2s-1.5-1.8-1.8-3c-0.4-1.1-0.5-2.3-0.4-3.6c0-0.4,0.2-1,0.5-1.8c0.4-0.8,1-1.5,1.8-2.3s1.9-1.5,3.3-2
	c1.4-0.6,3.1-0.9,5.2-0.9c1.7,0,3,0.1,4.1,0.4c1,0.3,1.9,0.6,2.5,1.1s1,1,1.3,1.6c0.2,0.6,0.4,1.2,0.5,1.9c0.1,1,0.1,2.2-0.1,3.5
	C353.5,11,353.1,12.3,352.5,13.4z M334.9,30.6c0.2-1.6,0.5-2.9,0.9-4c0.5-1,1.1-1.8,1.8-2.4c0.8-0.6,1.8-1,2.9-1.3
	c1.2-0.2,2.6-0.4,4.2-0.4c0.4,0,1.1,0,2.1,0s1.9,0.2,2.9,0.6s1.8,1,2.6,1.8c0.8,0.8,1.1,2.1,1.1,3.7c0,3.2-0.1,6.7-0.2,10.7
	c-0.1,3.9-0.4,8.8-0.7,14.6c-0.1,2.1-0.4,4-0.8,5.6c-0.4,1.7-1,3.1-1.8,4.2s-1.9,2.1-3.1,2.7c-1.3,0.6-2.9,0.9-4.7,0.9
	c-3.4,0-5.6-0.9-6.5-2.7c-0.5-0.9-0.9-3.1-1.1-6.5c-0.3-3.4-0.4-7.9-0.4-13.3c0-0.5,0-1.2,0-2.3c0-1,0.1-2.2,0.2-3.6
	c0.1-1.3,0.2-2.8,0.3-4.3C334.7,33.3,334.8,31.9,334.9,30.6z M325.3,33.1c-0.4,2.8-0.9,5.5-1.4,8.4c-0.5,2.8-1.1,5.5-1.7,8.1
	s-1.1,4.5-1.6,6c-1.4,4.1-3,7.2-4.9,9c-1.9,1.9-4.2,2.8-6.9,2.8c-1.7,0-3.2-0.4-4.5-1.3s-2.4-2-3.3-3.4s-1.7-2.9-2.2-4.5
	c-0.6-1.7-1.1-3.3-1.4-4.8c-0.1-0.4-0.3-0.5-0.5-0.5s-0.4,0.1-0.4,0.5c-0.7,2.7-1.5,4.9-2.5,6.7c-0.9,1.7-1.9,3.1-2.8,4.1
	s-1.8,1.7-2.7,2.1s-1.7,0.6-2.4,0.6c-2.1,0-3.9-0.5-5.4-1.6c-1.5-1-2.8-2.5-3.8-4.5c-0.6-1.1-1.2-2.6-1.8-4.4
	c-0.6-1.8-1.1-3.7-1.6-5.8s-1-4.2-1.4-6.4s-0.8-4.3-1.1-6.2c-0.3-1.9-0.5-3.7-0.7-5.2c-0.1-1.5-0.2-2.7-0.2-3.5
	c0-1.3,0.1-2.5,0.3-3.6c0.2-1.2,0.6-2.2,1.1-3.1c0.6-0.9,1.4-1.6,2.4-2.1s2.4-0.8,4.1-0.8c1.4,0,2.8,0.5,4,1.4
	c1.3,0.9,2.2,2.5,2.9,4.6c0.4,1.3,0.7,2.7,1,4.2c0.3,1.5,0.6,3.1,0.9,4.7s0.5,3.2,0.8,4.8s0.6,3.1,0.9,4.5c0.1,0.4,0.2,0.5,0.4,0.5
	c0.2,0,0.4-0.1,0.5-0.5c0.4-2,0.8-4.4,1.3-7c0.4-2.6,1-5.7,1.9-9.1c0.5-1.9,1.4-3.4,2.7-4.4c1.3-1,2.8-1.5,4.6-1.5
	c2,0,3.5,0.6,4.5,1.8c1,1.2,1.6,2.9,1.9,5.2c0.1,0.3,0.1,1,0.2,2.1c0.1,1.1,0.2,2.4,0.4,4c0.1,1.5,0.3,3.2,0.4,4.9s0.3,3.4,0.4,5
	c0.1,0.4,0.2,0.6,0.4,0.6s0.3-0.1,0.4-0.5c0.4-1.7,0.8-3.7,1.3-6.1c0.5-2.4,1-4.7,1.6-7s1.2-4.4,1.8-6.3c0.6-1.9,1.3-3.1,1.9-3.9
	c0.5-0.5,1-0.9,1.7-1.1c0.6-0.3,1.7-0.4,3.2-0.4c2.3,0,3.9,0.5,5,1.6c1,1.1,1.5,2.5,1.4,4.4C326,28,325.7,30.4,325.3,33.1z
	 M240.8,38.2c-1.3,2.6-2.6,5.4-4,8.2c-1.4,2.9-2.8,5.7-4.2,8.7c-1.4,2.9-2.8,5.7-4.1,8.4s-2.5,5.1-3.6,7.4s-2.1,4.2-3,5.7
	c-1.1,2.1-2.5,3.5-4.4,4.2c-1.8,0.7-3.9,0.9-6.1,0.6c-2.2-0.3-3.6-1.2-4.2-2.6c-0.6-1.4-0.7-3.1-0.2-5c0.4-1.3,0.8-2.6,1.3-3.7
	c0.4-1.1,0.9-2.3,1.3-3.5s0.9-2.4,1.5-3.8c0.5-1.4,1.1-2.9,1.8-4.7c-1-2.2-2.1-4.4-3.2-6.7c-1.1-2.2-2.3-4.5-3.4-6.8
	c-1.1-2.3-2.3-4.6-3.4-7c-1.1-2.4-2.1-4.9-3.1-7.6c-0.5-1.5-0.8-2.8-0.7-4s0.4-2.2,0.9-3s1.1-1.5,1.9-2c0.8-0.5,1.6-0.9,2.4-1
	c2.9-0.7,5.2-0.6,6.8,0.2c1.7,0.8,3.1,2.3,4.3,4.5c0.4,0.7,0.9,1.7,1.4,2.9c0.5,1.2,1.1,2.6,1.8,4c0.6,1.5,1.3,3,1.9,4.6
	c0.7,1.6,1.3,3.1,1.9,4.6c0.1,0.2,0.3,0.3,0.5,0.3c0.2-0.1,0.4-0.2,0.5-0.5c1.4-3.1,2.7-6.3,4-9.4c1.3-3.2,2.5-5.9,3.6-8.1
	c1-2.1,2.5-3.3,4.5-3.6c1.9-0.3,4,0,6.2,0.9c2.2,0.8,3.4,2.3,3.7,4.3c0.2,2-0.2,4.1-1.3,6.3C243.2,33.1,242,35.5,240.8,38.2z
	 M191.7,52.8c-0.2,4.9-1.6,8.4-3.9,10.4c-2.4,2-6.1,3.1-11.1,3.1c-4.9,0-9-0.5-12.5-1.4s-6.2-2.2-8.3-3.9s-3.6-3.7-4.5-6.1
	c-0.9-2.4-1.2-5-1-7.9c0.2-3.4,1-6.7,2.2-10s3-6.2,5.2-8.8c2.2-2.5,4.9-4.6,8.1-6c3.2-1.5,6.8-2.1,11-1.8c-0.1-1.9-0.2-3.7-0.3-5.5
	c-0.1-1.8-0.3-3.6-0.4-5.5c-0.2-2.5,0.3-4.6,1.8-6.3c1.4-1.7,3.7-2.5,6.8-2.5c2.8,0,4.7,0.8,5.8,2.3s1.6,3.6,1.6,6.3
	c0.2,7.3,0.3,14.5,0.2,21.7C192.2,38.2,192,45.5,191.7,52.8z M176.9,39.7c0-0.7-0.1-1.1-0.4-1.4c-0.2-0.3-0.5-0.5-0.9-0.5
	s-0.7,0-1.1,0.1c-0.4,0.1-0.7,0.2-0.9,0.4c-2,1.1-3.5,2.4-4.7,3.9c-1.1,1.4-1.7,3.1-1.7,4.9c0,1.6,0.5,3,1.6,4.2s2.8,1.9,5.1,2
	c0.5,0.1,1.1-0.1,1.8-0.4c0.7-0.3,1.1-1.2,1.1-2.6L176.9,39.7L176.9,39.7z M142.8,54.4c-0.1,2.2-0.1,3.8-0.3,5
	c-0.2,2.8-1.1,4.8-2.5,6s-3.7,1.8-6.7,1.8c-2.3,0-4.1-0.3-5.4-0.8c-1.3-0.5-2.4-1.8-3.3-4c-1.6,1.1-3.2,1.9-4.8,2.4
	c-1.7,0.4-3.3,0.7-5.1,0.7c-2.5,0-4.7-0.3-6.8-0.8s-3.8-1.5-5.4-2.7c-1.5-1.3-2.8-3-3.7-5.1c-1-2.1-1.6-4.8-1.9-8
	c-0.2-2-0.3-4.2-0.3-6.7s0-4.9,0.2-7.4s0.5-4.8,0.9-7s0.9-4,1.5-5.4c0.5-1.2,1.5-2.2,3-3s3.3-1.2,5.4-1.2c2,0,3.7,0.5,4.9,1.6
	c1.3,1,1.9,2.8,1.8,5.3c-0.1,2.9-0.2,5.9-0.2,8.9s0,5.8,0,8.4c0,2.9,0.4,5,1.2,6.4c0.8,1.4,2.2,2.1,4.4,2.2c0.7,0,1.3-0.1,2.1-0.2
	c0.7-0.1,1.5-0.4,2.2-0.9c-0.1-3-0.1-6.1,0-9.4c0.1-3.2,0.2-7.1,0.5-11.6c0.1-2.1,0.4-3.8,0.8-5.2s1-2.5,1.9-3.3
	c0.8-0.8,1.9-1.4,3.2-1.8s2.9-0.5,4.8-0.5c1.7,0,3,0.2,3.7,0.7c0.8,0.4,1.4,1.1,1.8,2c0.4,0.8,0.8,2.1,1,4s0.4,4.1,0.6,6.5
	c0.2,2.5,0.3,5.1,0.3,7.9c0.1,2.8,0.1,5.5,0,8.1C142.9,49.9,142.8,52.3,142.8,54.4z M88.7,58c-1.1,1.8-2.6,3.5-4.2,4.9
	c-1.7,1.4-3.6,2.6-5.7,3.4s-4.5,1.3-7.1,1.3s-4.8-0.5-6.8-1.4s-3.6-2.2-5-3.8c-1.4-1.6-2.5-3.5-3.3-5.7s-1.3-4.5-1.6-7.1
	s-0.5-5.4-0.6-8.4s-0.1-6,0-9.1c-0.8-0.1-1.6-0.2-2.2-0.3c-0.6-0.1-1.1-0.2-1.4-0.3c-1.2-0.4-2.2-0.9-2.9-1.4
	c-0.8-0.5-1.1-1.2-1.1-2c0-3.7,0.8-6.1,2.4-7.3c1.2-0.9,2.6-1.5,4.2-1.7C53.7,19,54,19,54.3,19c0.3,0,0.6,0,0.9-0.1
	c0.2-2.1,0.4-4.1,0.6-6.1c0.2-1.9,0.5-3.8,0.8-5.5C56.9,5.4,57.7,4,58.9,3s2.7-1.4,4.5-1.2C64.8,1.8,66,2,67,2.4s1.8,1,2.5,1.6
	c1.1,0.6,1.8,1.5,2.1,2.8c0.3,1.2,0.4,2.5,0.3,3.9c-0.1,1.1-0.1,2.2-0.2,3.5c-0.1,1.2-0.1,2.5-0.2,3.9c1.2,0.1,2.4,0.1,3.5,0.2
	s2.3,0.2,3.5,0.4c2.9,0.4,5.4,0.9,7.3,1.8c1.9,0.8,2.9,2,2.8,3.5c-0.1,1.9-0.6,3.5-1.3,4.7c-0.8,1.2-1.5,2-2.4,2.3
	c-1,0.7-2.7,1.1-5.3,1.4c-2.6,0.3-5.5,0.4-8.7,0.5c0,2.1,0,4.1,0,6.1s0.1,3.8,0.2,5.5c0.3,3.5,0.6,6,1,7.5s1,2.2,1.9,2.2
	c0.5,0,0.9-0.3,1.3-0.8s0.7-1.2,0.9-2c0.2-0.8,0.5-1.7,0.6-2.6c0.2-0.9,0.4-1.8,0.5-2.6c0.3-1.8,1.2-3.1,2.7-3.8
	c1.5-0.8,3.3-0.9,5.4-0.4c2.6,0.5,4.4,1.8,5.4,3.8s1.2,4.1,0.4,6.4C90.7,54.2,89.8,56.2,88.7,58z M27.2,30.8
	c0.6,0.4,1.7,1.1,3.3,2.2c1.6,1,3.3,2.4,5,4c1.7,1.7,3.3,3.7,4.6,6c1.4,2.3,2,4.9,2,7.9c0,2.9-0.7,5.4-2,7.4s-3.1,3.6-5.4,4.8
	c-2.2,1.2-4.7,2.1-7.5,2.6s-5.6,0.8-8.5,0.8c-3.1,0-6-0.3-8.7-1s-4.9-1.8-6.7-3.4c-0.5-0.5-1-1.1-1.4-1.8S1.2,58.9,1,58.1
	s-0.3-1.6-0.3-2.4c0-0.8,0.2-1.6,0.5-2.3c0.8-2,2.1-3.3,3.7-3.8c1.7-0.5,3.3-0.5,4.9,0.1c1,0.4,2.2,0.7,3.5,1.1
	c1.3,0.4,3.2,0.6,5.5,0.6c2.9,0,4.5-0.7,4.8-2.1c0.2-1-0.3-1.9-1.5-2.7c-1.5-1-3.1-2.1-4.8-3.3s-3.9-3-6.5-5.3
	c-2.5-2.1-4.4-4.5-5.9-7.2c-1.4-2.7-2.2-5.4-2.2-8s0.3-5.1,1-7.5c1-2.3,2.1-4.3,3.5-6.1s3.3-3.2,5.6-4.4c2.3-1.1,5-1.8,8.2-2.1
	c2.8-0.2,5.3-0.2,7.6,0.2c2.2,0.4,4.4,1,6.5,1.8s3.7,2,4.8,3.8c1.1,1.7,1.3,3.8,0.5,6c-0.7,1.9-1.7,3.3-3.2,4
	c-1.5,0.8-3.1,1-4.9,0.7c-1.2-0.2-2.5-0.4-3.9-0.6s-2.4-0.3-3.1-0.3c-1.6,0-2.7,0.4-3.6,1.1c-0.8,0.8-1.2,1.8-1.2,3.1
	c0,1.7,0.7,3.2,2,4.4C23.9,28.3,25.5,29.5,27.2,30.8z"/>
</svg>
